<svg width="40" height="40" fill="none" xmlns="http://www.w3.org/2000/svg">
  <path fill="#fff" d="M0 0h40v40H0z"/>
  <path d="M14.567 17.113c0-.2 0-.4.034-.6-2.73.966-4.693 3.528-4.693 6.59a6.988 6.988 0 006.989 6.989c3.062 0 5.624-1.964 6.59-4.693-.2 0-.4.034-.6.034a8.323 8.323 0 01-8.32-8.32z" fill="#B6E9FF"/>
  <path d="M28.028 11.977a8.368 8.368 0 00-1.032-.868 6.891 6.891 0 00-3.894-1.2c-1.198 0-2.33.3-3.328.833a6.8 6.8 0 00-2.063 1.702 6.786 6.786 0 00-1.564 3.903c0-.134.033-.267.033-.4.3-.034.599-.067.932-.067 3.394 0 6.19 2.402 6.856 5.604.1.468.133.935.133 1.402 0 .3-.034.634-.067.934-.133.033-.266.033-.4.033 3.595-.267 6.457-3.303 6.457-6.972a7.153 7.153 0 00-2.063-4.904z" fill="#56B4FC"/>
  <path d="M23.054 24.156c.032-.29.065-.578.065-.9 0-.48-.033-.93-.129-1.348-.642-3.082-3.34-5.394-6.615-5.394-.289 0-.61.032-.899.064-.032.128-.032.257-.032.385 0 .16-.032.353-.032.514 0 .931.193 1.83.546 2.633a7.04 7.04 0 001.445 2.151c.128.129.289.257.45.386.192.16.353.289.577.417.354.257.739.45 1.156.61a6.55 6.55 0 002.634.546c.192 0 .353 0 .513-.032.097 0 .193-.032.321-.032z" fill="#1752EE"/>
</svg>
